<svg width="33" height="25" viewBox="0 0 33 25" fill="none" xmlns="http://www.w3.org/2000/svg">
<path d="M20.1926 3.94612C20.1926 6.1255 18.4608 7.89223 16.3245 7.89223C14.1881 7.89223 12.4563 6.1255 12.4563 3.94612C12.4563 1.76674 14.1881 0 16.3245 0C18.4608 0 20.1926 1.76674 20.1926 3.94612Z" fill="#5A5EE7"/>
<path d="M18.3851 18.0594C17.8877 18.1289 17.5457 18.0641 17.0994 18.0606C16.8459 18.0585 16.5872 18.0565 16.3245 18.0565C16.0617 18.0565 15.803 18.0585 15.5495 18.0606C15.0598 18.0645 14.6873 18.1416 14.1452 18.0567C12.3206 17.7709 11.687 16.5972 11.3427 15.0012C11.1976 14.329 11.2349 13.9181 11.3427 13.2386C11.5416 11.984 11.8492 11.1915 12.7579 10.3221C13.8308 9.2958 14.9825 9.08803 16.3245 9.08803C17.6073 9.08803 18.6703 9.30818 19.7591 10.2218C20.7913 11.0879 21.249 11.896 21.4818 13.2386C21.5994 13.9164 21.6301 14.3297 21.4818 15.0012C21.112 16.6764 20.2578 17.7979 18.3851 18.0594Z" fill="#5A5EE7"/>
<path d="M10.2289 10.8817C10.2289 13.0611 8.49712 14.8278 6.36081 14.8278C4.2245 14.8278 2.49267 13.0611 2.49267 10.8817C2.49267 8.70234 4.2245 6.9356 6.36081 6.9356C8.49712 6.9356 10.2289 8.70234 10.2289 10.8817Z" fill="#5A5EE7"/>
<path d="M12.2216 22.0026C12.2216 25.3047 9.59764 24.9921 6.36081 24.9921C3.12397 24.9921 0.5 25.3047 0.5 22.0026C0.5 18.7005 3.12397 16.0236 6.36081 16.0236C9.59764 16.0236 12.2216 18.7005 12.2216 22.0026Z" fill="#5A5EE7"/>
<path d="M30.5073 10.8817C30.5073 13.0611 28.7755 14.8278 26.6392 14.8278C24.5029 14.8278 22.7711 13.0611 22.7711 10.8817C22.7711 8.70234 24.5029 6.9356 26.6392 6.9356C28.7755 6.9356 30.5073 8.70234 30.5073 10.8817Z" fill="#5A5EE7"/>
<path d="M32.5 22.0026C32.5 25.3047 29.876 24.9921 26.6392 24.9921C23.4024 24.9921 20.7784 25.3047 20.7784 22.0026C20.7784 18.7005 23.4024 16.0236 26.6392 16.0236C29.876 16.0236 32.5 18.7005 32.5 22.0026Z" fill="#5A5EE7"/>
</svg>
