<svg width="23" height="25" viewBox="0 0 23 25" fill="none" xmlns="http://www.w3.org/2000/svg">
<path fill-rule="evenodd" clip-rule="evenodd" d="M12.8459 0.389898C12.0216 -0.129966 10.9784 -0.129966 10.1541 0.3899L6.07754 2.96064L1.84747 5.26098C0.991984 5.72616 0.470172 6.64387 0.501321 7.62892L0.655074 12.5L0.501321 17.3711C0.470172 18.3561 0.991984 19.2738 1.84747 19.739L6.07754 22.0394L10.1541 24.6101C10.9784 25.13 12.0216 25.13 12.8459 24.6101L16.9225 22.0394L21.1525 19.739C22.008 19.2738 22.5298 18.3561 22.4987 17.3711L22.3449 12.5L22.4987 7.62892C22.5298 6.64387 22.008 5.72616 21.1525 5.26098L16.9225 2.96064L12.8459 0.389898ZM11.3724 18.2019C14.4024 18.2019 16.8587 15.7071 16.8587 12.6296C16.8587 9.55207 14.4024 7.05725 11.3724 7.05725C8.34246 7.05725 5.88616 9.55207 5.88616 12.6296C5.88616 15.7071 8.34246 18.2019 11.3724 18.2019Z" fill="#5A5EE7"/>
</svg>
