<svg width="21" height="23" viewBox="0 0 21 23" fill="none" xmlns="http://www.w3.org/2000/svg">
<path fill-rule="evenodd" clip-rule="evenodd" d="M0.5 4.38095C0.5 1.96143 2.42561 0 4.80108 0H19.1452C19.8934 0 20.5 0.617836 20.5 1.38001V2.01221C20.5 2.03435 20.4991 2.05625 20.4972 2.07788C20.4991 2.11518 20.5 2.15272 20.5 2.19048V14.8952C20.5 15.8735 19.8704 16.702 19.0014 16.9832L18.9963 19.2753C18.9954 19.6989 19.3323 20.0429 19.7482 20.0429C20.1633 20.0429 20.5 20.3857 20.5 20.8086V21.5214C20.5 22.338 19.8501 23 19.0484 23H2.65054C1.46281 23 0.5 22.0193 0.5 20.8095V4.38095ZM3.58825 18.7724C3.58825 17.9255 4.26218 17.239 5.09362 17.239H15.2012C15.795 17.239 16.2764 17.7294 16.2764 18.3343V19.2105C16.2764 19.8154 15.795 20.3057 15.2012 20.3057H5.09362C4.26218 20.3057 3.58825 19.6192 3.58825 18.7724ZM5.44624 6.46191C5.44624 5.91751 5.87951 5.47619 6.41398 5.47619H14.586C15.1205 5.47619 15.5538 5.91751 15.5538 6.46191C15.5538 7.0063 15.1205 7.44762 14.586 7.44762H6.41398C5.87951 7.44762 5.44624 7.0063 5.44624 6.46191ZM6.41398 8.7619C5.87951 8.7619 5.44624 9.20322 5.44624 9.74762C5.44624 10.292 5.87951 10.7333 6.41398 10.7333H14.586C15.1205 10.7333 15.5538 10.292 15.5538 9.74762C15.5538 9.20322 15.1205 8.7619 14.586 8.7619H6.41398Z" fill="white"/>
</svg>
