<svg width="21" height="25" viewBox="0 0 21 25" fill="none" xmlns="http://www.w3.org/2000/svg">
<path fill-rule="evenodd" clip-rule="evenodd" d="M1.5 0C0.947754 0 0.5 0.454985 0.5 1.01626V23.9837C0.5 24.545 0.947754 25 1.5 25H3.7V20.935C3.7 20.3737 4.14775 19.9187 4.7 19.9187H16.3C16.8522 19.9187 17.3 20.3737 17.3 20.935V25H19.5C20.0522 25 20.5 24.545 20.5 23.9837V1.01626C20.5 0.454985 20.0522 0 19.5 0H1.5ZM4.7 3.25203C4.14775 3.25203 3.7 3.70702 3.7 4.26829V7.31707C3.7 7.87835 4.14775 8.33333 4.7 8.33333H16.3C16.8522 8.33333 17.3 7.87835 17.3 7.31707V4.26829C17.3 3.70702 16.8522 3.25203 16.3 3.25203H4.7ZM3.7 12.6016C3.7 12.0404 4.14775 11.5854 4.7 11.5854H16.3C16.8522 11.5854 17.3 12.0404 17.3 12.6016V15.6504C17.3 16.2117 16.8522 16.6667 16.3 16.6667H4.7C4.14775 16.6667 3.7 16.2117 3.7 15.6504V12.6016Z" fill="#5A5EE7"/>
</svg>
