<svg width="23" height="20" viewBox="0 0 23 20" fill="none" xmlns="http://www.w3.org/2000/svg">
<path d="M0 15.1091V2.27933C0 1.01545 1.0189 -0.0112978 2.2793 0.0658237C3.40285 0.134888 4.72995 0.271865 5.75 0.540063C6.9575 0.858909 8.3904 1.53804 9.5243 2.13774C9.87735 2.32537 10.2534 2.45429 10.6375 2.52796V20C10.2854 19.9229 9.94558 19.7974 9.6278 19.6271C8.4778 19.0147 6.9943 18.3033 5.75 17.9741C4.74145 17.7082 3.4316 17.5712 2.31725 17.5022C1.0419 17.4216 0 16.3891 0 15.1091ZM12.3625 20C12.7146 19.9229 13.0544 19.7974 13.3722 19.6271C14.5222 19.0147 16.0057 18.3033 17.25 17.9741C18.2585 17.7082 19.5684 17.5712 20.6828 17.5022C21.9581 17.4216 23 16.388 23 15.108V2.20566C23 0.971713 22.0271 -0.0423766 20.7943 0.00136398C19.496 0.0474067 17.879 0.18093 16.675 0.542365C15.6308 0.854305 14.4152 1.48164 13.4251 2.05602C13.093 2.24793 12.7352 2.39134 12.3625 2.48191V20Z" fill="#5A5EE7"/>
</svg>
