<svg width="117" height="69" viewBox="0 0 117 69" fill="none" xmlns="http://www.w3.org/2000/svg">
<path d="M10.0649 42.552V34.92H15.3449C15.3449 33.192 15.2489 31.24 15.0569 29.064C14.8969 26.888 14.5929 24.6 14.1449 22.2C13.6969 19.8 13.0889 17.32 12.3209 14.76C11.5529 12.2 10.5449 9.656 9.29688 7.128L14.7209 0.36C16.1929 2.984 17.5369 6.024 18.7529 9.48C19.2649 10.952 19.7609 12.6 20.2409 14.424C20.7529 16.248 21.2009 18.232 21.5849 20.376C22.0009 22.488 22.3369 24.76 22.5929 27.192C22.8489 29.624 22.9929 32.2 23.0249 34.92H42.7049C42.7369 32.2 42.8809 29.624 43.1369 27.192C43.3929 24.76 43.7129 22.488 44.0969 20.376C44.5129 18.232 44.9609 16.264 45.4409 14.472C45.9529 12.648 46.4649 11 46.9769 9.528C48.1609 6.072 49.5049 3.032 51.0089 0.407999L56.4329 7.224C55.1849 9.752 54.1769 12.296 53.4089 14.856C52.6409 17.384 52.0329 19.848 51.5849 22.248C51.1369 24.648 50.8169 26.936 50.6249 29.112C50.4649 31.256 50.3849 33.192 50.3849 34.92H55.5209V42.552H10.0649ZM28.8809 33.096V16.44H36.7049V33.096H28.8809ZM101.953 42.504C99.489 41.672 97.265 40.344 95.281 38.52C93.329 36.728 91.553 34.664 89.953 32.328C88.385 29.992 87.009 27.496 85.825 24.84C84.641 22.152 83.617 19.512 82.753 16.92C81.889 19.512 80.865 22.152 79.681 24.84C78.497 27.496 77.105 29.992 75.505 32.328C73.937 34.664 72.161 36.728 70.177 38.52C68.193 40.344 65.985 41.672 63.553 42.504L60.625 35.448C62.545 34.456 64.433 32.968 66.289 30.984C67.089 30.12 67.921 29.112 68.785 27.96C69.649 26.808 70.513 25.48 71.377 23.976C72.241 22.44 73.073 20.728 73.873 18.84C74.705 16.92 75.473 14.776 76.177 12.408H67.537V4.776H78.001C78.289 3.4 78.529 1.96 78.721 0.455998H86.785L87.505 4.776H97.873V12.408H89.377C90.081 14.776 90.833 16.92 91.633 18.84C92.465 20.728 93.297 22.44 94.129 23.976C94.993 25.48 95.857 26.808 96.721 27.96C97.585 29.112 98.417 30.12 99.217 30.984C101.073 32.968 102.961 34.456 104.881 35.448L101.953 42.504ZM78.817 36.168V28.488H86.641V36.168H78.817ZM0.0976562 65.392C0.721656 64.128 1.22566 62.856 1.60966 61.576C2.00966 60.296 2.32166 59.056 2.54566 57.856C2.76966 56.656 2.92166 55.52 3.00166 54.448C3.09766 53.36 3.14566 52.384 3.14566 51.52H0.481656V47.68H23.2097V51.52H20.6417C20.6417 52.384 20.6817 53.36 20.7617 54.448C20.8577 55.52 21.0177 56.656 21.2417 57.856C21.4657 59.056 21.7697 60.296 22.1537 61.576C22.5377 62.84 23.0417 64.104 23.6657 65.368L20.9537 68.776C20.2017 67.464 19.5297 65.944 18.9377 64.216C18.6817 63.48 18.4257 62.664 18.1697 61.768C17.9297 60.856 17.7057 59.872 17.4977 58.816C17.3057 57.744 17.1457 56.6 17.0177 55.384C16.8897 54.168 16.8177 52.88 16.8017 51.52H6.96166C6.94566 52.88 6.87366 54.168 6.74566 55.384C6.61766 56.6 6.44966 57.744 6.24166 58.816C6.04966 59.888 5.82566 60.88 5.56966 61.792C5.32966 62.688 5.08166 63.504 4.82566 64.24C4.21766 65.968 3.54566 67.488 2.80966 68.8L0.0976562 65.392ZM9.88966 60.736V52.432H13.8017V60.736H9.88966ZM46.7304 68.752C45.4984 68.336 44.3864 67.672 43.3944 66.76C42.4184 65.864 41.5304 64.832 40.7304 63.664C39.9464 62.496 39.2584 61.248 38.6664 59.92C38.0744 58.576 37.5624 57.256 37.1304 55.96C36.6984 57.256 36.1864 58.576 35.5944 59.92C35.0024 61.248 34.3064 62.496 33.5064 63.664C32.7224 64.832 31.8344 65.864 30.8424 66.76C29.8504 67.672 28.7464 68.336 27.5304 68.752L26.0664 65.224C27.0264 64.728 27.9704 63.984 28.8984 62.992C29.2984 62.56 29.7144 62.056 30.1464 61.48C30.5784 60.904 31.0104 60.24 31.4424 59.488C31.8744 58.72 32.2904 57.864 32.6904 56.92C33.1064 55.96 33.4904 54.888 33.8424 53.704H29.5224V49.888H34.7544C34.8984 49.2 35.0184 48.48 35.1144 47.728H39.1464L39.5064 49.888H44.6904V53.704H40.4424C40.7944 54.888 41.1704 55.96 41.5704 56.92C41.9864 57.864 42.4024 58.72 42.8184 59.488C43.2504 60.24 43.6824 60.904 44.1144 61.48C44.5464 62.056 44.9624 62.56 45.3624 62.992C46.2904 63.984 47.2344 64.728 48.1944 65.224L46.7304 68.752ZM35.1624 65.584V61.744H39.0744V65.584H35.1624ZM50.6055 65.416C51.2295 64.152 51.7335 62.88 52.1175 61.6C52.5175 60.32 52.8295 59.08 53.0535 57.88C53.2775 56.68 53.4295 55.544 53.5095 54.472C53.6055 53.384 53.6535 52.408 53.6535 51.544H50.9895V47.704H63.1095V64.024H59.1975V51.544H57.4695C57.4535 52.904 57.3815 54.192 57.2535 55.408C57.1255 56.624 56.9575 57.768 56.7495 58.84C56.5575 59.896 56.3415 60.88 56.1015 61.792C55.8615 62.704 55.6135 63.528 55.3575 64.264C54.7655 66.008 54.0935 67.528 53.3415 68.824L50.6055 65.416ZM59.1975 68.776V64.96H64.8375C64.8535 63.6 64.9255 62.312 65.0535 61.096C65.1815 59.88 65.3415 58.744 65.5335 57.688C65.7415 56.616 65.9655 55.624 66.2055 54.712C66.4615 53.8 66.7175 52.976 66.9735 52.24C67.5655 50.512 68.2375 48.992 68.9895 47.68L71.7015 51.088C71.0775 52.352 70.5735 53.624 70.1895 54.904C69.8055 56.168 69.5015 57.4 69.2775 58.6C69.0535 59.8 68.8935 60.944 68.7975 62.032C68.7175 63.12 68.6775 64.096 68.6775 64.96H71.3415V68.776H59.1975ZM88.1298 68.8V68.2C87.4258 67.992 86.6098 67.712 85.6818 67.36C84.7698 67.008 83.8098 66.56 82.8018 66.016C81.7938 65.488 80.7778 64.848 79.7538 64.096C78.7298 63.36 77.7538 62.496 76.8258 61.504L76.9218 61.456H76.8018V51.544H74.0898V47.704H91.9698V51.544H80.6178V59.632C80.6818 59.712 80.8818 59.92 81.2178 60.256C81.5538 60.592 82.0258 60.992 82.6338 61.456C83.2418 61.904 84.0018 62.384 84.9138 62.896C85.8258 63.392 86.8978 63.848 88.1298 64.264V57.328H91.9698V68.8H88.1298ZM83.3298 61.144V57.328H87.2418V61.144H83.3298ZM115.027 68.752C113.795 68.336 112.683 67.672 111.691 66.76C110.715 65.864 109.827 64.832 109.027 63.664C108.243 62.496 107.555 61.248 106.963 59.92C106.371 58.576 105.859 57.256 105.427 55.96C104.995 57.256 104.483 58.576 103.891 59.92C103.299 61.248 102.603 62.496 101.803 63.664C101.019 64.832 100.131 65.864 99.1393 66.76C98.1473 67.672 97.0433 68.336 95.8273 68.752L94.3633 65.224C95.3233 64.728 96.2673 63.984 97.1953 62.992C97.5953 62.56 98.0113 62.056 98.4433 61.48C98.8753 60.904 99.3073 60.24 99.7393 59.488C100.171 58.72 100.587 57.864 100.987 56.92C101.403 55.96 101.787 54.888 102.139 53.704H97.8193V49.888H103.051C103.195 49.2 103.315 48.48 103.411 47.728H107.443L107.803 49.888H112.987V53.704H108.739C109.091 54.888 109.467 55.96 109.867 56.92C110.283 57.864 110.699 58.72 111.115 59.488C111.547 60.24 111.979 60.904 112.411 61.48C112.843 62.056 113.259 62.56 113.659 62.992C114.587 63.984 115.531 64.728 116.491 65.224L115.027 68.752ZM103.459 65.584V61.744H107.371V65.584H103.459Z" fill="white"/>
</svg>
