<svg width="22" height="23" viewBox="0 0 22 23" fill="none" xmlns="http://www.w3.org/2000/svg">
<path d="M2.51797 14.4543L2.9917 16.2246C3.54514 18.2908 3.82278 19.3244 4.45045 19.9942C4.94584 20.5228 5.58674 20.8926 6.29221 21.0571C7.18652 21.2661 8.22011 20.9893 10.2873 20.4359C12.3526 19.8824 13.3862 19.6057 14.056 18.9781C14.1116 18.9255 14.1654 18.8718 14.2173 18.8168C13.9052 18.7887 13.595 18.7428 13.2882 18.6793C12.6504 18.5529 11.8926 18.3495 10.9965 18.1094L10.8985 18.0828L10.8755 18.0773C9.9006 17.8153 9.08601 17.5972 8.43544 17.3626C7.75096 17.1152 7.12971 16.8101 6.60101 16.3153C5.87376 15.6339 5.36484 14.7523 5.13859 13.7817C4.97366 13.0771 5.0213 12.3862 5.14959 11.6706C5.27237 10.9843 5.49228 10.1614 5.75618 9.1764L6.2464 7.3493L6.26289 7.28516C4.50359 7.75888 3.57722 8.03927 2.95963 8.61746C2.43046 9.11322 2.06024 9.75482 1.8958 10.4611C1.68689 11.3544 1.96361 12.388 2.51797 14.4543Z" fill="#8F96A3"/>
<path fill-rule="evenodd" clip-rule="evenodd" d="M19.0806 10.7883L18.606 12.5586C18.0516 14.6248 17.7749 15.6584 17.1472 16.3282C16.652 16.8571 16.011 17.2273 15.3055 17.3921C15.2169 17.4128 15.1268 17.4287 15.0352 17.4397C14.1967 17.5432 13.1732 17.2693 11.3113 16.7708C9.24506 16.2164 8.21148 15.9397 7.54166 15.3121C7.01265 14.8165 6.64244 14.1753 6.47784 13.4694C6.26892 12.5751 6.54564 11.5424 7.1 9.47614L7.57373 7.70585L7.79731 6.8766C8.21422 5.35004 8.49461 4.5098 9.03248 3.93528C9.52787 3.40675 10.1688 3.03688 10.8742 2.87237C11.7686 2.66345 12.8021 2.94017 14.8693 3.49453C16.9347 4.04798 17.9682 4.3247 18.6381 4.95145C19.1672 5.44722 19.5374 6.08881 19.7019 6.79505C19.9108 7.68936 19.6341 8.72203 19.0806 10.7883ZM10.1201 9.95445C10.1435 9.86726 10.1839 9.78553 10.2388 9.71394C10.2938 9.64234 10.3624 9.58228 10.4406 9.53718C10.5188 9.49208 10.6051 9.46283 10.6946 9.4511C10.7841 9.43937 10.875 9.44539 10.9622 9.46881L15.3879 10.6554C15.4774 10.6766 15.5617 10.7156 15.6359 10.77C15.71 10.8244 15.7725 10.8931 15.8196 10.9721C15.8667 11.0511 15.8975 11.1387 15.9101 11.2298C15.9227 11.3209 15.9169 11.4136 15.8931 11.5024C15.8692 11.5912 15.8278 11.6743 15.7712 11.7468C15.7146 11.8193 15.6441 11.8798 15.5637 11.9245C15.4834 11.9692 15.3949 11.9974 15.3035 12.0073C15.212 12.0172 15.1196 12.0087 15.0315 11.9822L10.6058 10.7965C10.4299 10.7493 10.2799 10.6342 10.1889 10.4764C10.0978 10.3187 10.0731 10.1304 10.1201 9.95445ZM9.40908 12.6108C9.45632 12.4349 9.57145 12.285 9.72917 12.1939C9.88689 12.1029 10.0743 12.0781 10.2502 12.1252L12.9057 12.8371C12.9956 12.8579 13.0804 12.8965 13.155 12.9508C13.2297 13.005 13.2927 13.0737 13.3402 13.1528C13.3877 13.2319 13.4188 13.3197 13.4317 13.4111C13.4445 13.5025 13.4388 13.5955 13.4149 13.6846C13.3911 13.7737 13.3495 13.8572 13.2927 13.9299C13.2359 14.0026 13.165 14.0631 13.0843 14.1078C13.0036 14.1526 12.9147 14.1806 12.8229 14.1902C12.7312 14.1999 12.6384 14.1909 12.5502 14.1639L9.89472 13.4529C9.80753 13.4295 9.7258 13.3892 9.65421 13.3342C9.58261 13.2792 9.52255 13.2107 9.47745 13.1325C9.43235 13.0543 9.4031 12.9679 9.39137 12.8784C9.37964 12.7889 9.38566 12.698 9.40908 12.6108Z" fill="#8F96A3"/>
</svg>
