<svg width="26" height="26" viewBox="0 0 26 26" fill="none" xmlns="http://www.w3.org/2000/svg">
<path d="M12.7409 25.3961C6.91447 25.3961 4.00128 25.3961 2.19057 23.5854C0.381104 21.7772 0.381104 18.8627 0.381104 13.0364C0.381104 7.20997 0.381104 4.29677 2.19057 2.48607C3.03845 1.64066 4.1224 1.19077 5.634 0.950989V9.11831C5.634 9.69675 5.634 10.1701 5.65501 10.5434C5.67726 10.9117 5.72175 11.2924 5.87378 11.6323C6.13818 12.2274 6.60306 12.7109 7.18738 12.9984C7.7717 13.286 8.4384 13.3593 9.07125 13.2057C9.43339 13.1192 9.76339 12.9214 10.0674 12.7138C10.3764 12.5037 10.7509 12.2144 11.2095 11.8609L11.2317 11.8436C11.8126 11.3987 11.9758 11.28 12.1253 11.2158C12.3196 11.1314 12.5291 11.0879 12.7409 11.0879C12.9526 11.0879 13.1621 11.1314 13.3564 11.2158C13.5059 11.28 13.6691 11.3975 14.25 11.8436L14.2722 11.8622C14.7295 12.2144 15.1065 12.5037 15.4143 12.715C15.7196 12.9214 16.0483 13.1179 16.4105 13.2057C17.0433 13.3593 17.71 13.286 18.2943 12.9984C18.8787 12.7109 19.3435 12.2274 19.6079 11.6323C19.76 11.2924 19.8057 10.9117 19.8267 10.5434C19.8477 10.1701 19.8477 9.69675 19.8477 9.11831V0.948517C21.3593 1.18953 22.4457 1.64066 23.2899 2.48483C25.1006 4.29801 25.1006 7.20997 25.1006 13.0364C25.1006 18.8627 25.1006 21.7759 23.2899 23.5854C21.4817 25.3961 18.5672 25.3961 12.7409 25.3961Z" fill="#8F96A3" fill-opacity="0.8"/>
</svg>
