<svg width="22" height="22" viewBox="0 0 22 22" fill="none" xmlns="http://www.w3.org/2000/svg">
<path fill-rule="evenodd" clip-rule="evenodd" d="M2.30265 7.15837C1.82617 8.0261 1.82617 9.07527 1.82617 11.1718V12.5664C1.82617 16.1399 1.82617 17.9276 2.90008 19.0382C3.97398 20.1488 5.7012 20.1488 9.15657 20.1488H12.8218C16.2771 20.1488 18.0053 20.1488 19.0783 19.0382C20.1513 17.9276 20.1522 16.1409 20.1522 12.5664V11.1727C20.1522 9.07527 20.1522 8.02702 19.6757 7.15837C19.2011 6.2888 18.3315 5.75002 16.5933 4.67061L14.7607 3.53349C12.9235 2.39269 12.0044 1.82275 10.9892 1.82275C9.97391 1.82275 9.05578 2.39269 7.21768 3.53349L5.38508 4.67061C3.64686 5.75002 2.77821 6.2888 2.30265 7.15837ZM8.64894 14.0993C8.57669 14.0431 8.49393 14.0019 8.40552 13.9781C8.31711 13.9543 8.22484 13.9484 8.13412 13.9608C8.04341 13.9731 7.95608 14.0035 7.87726 14.0501C7.79844 14.0966 7.72972 14.1585 7.67514 14.232C7.62056 14.3055 7.58122 14.3892 7.55942 14.4781C7.53763 14.567 7.53382 14.6594 7.54823 14.7498C7.56263 14.8402 7.59496 14.9269 7.64331 15.0046C7.69165 15.0824 7.75505 15.1497 7.82977 15.2026C8.74211 15.8844 9.85023 16.2533 10.9892 16.2545C12.1278 16.2531 13.2356 15.8842 14.1477 15.2026C14.2224 15.1497 14.2858 15.0824 14.3341 15.0046C14.3825 14.9269 14.4148 14.8402 14.4292 14.7498C14.4436 14.6594 14.4398 14.567 14.418 14.4781C14.3962 14.3892 14.3569 14.3055 14.3023 14.232C14.2477 14.1585 14.179 14.0966 14.1002 14.0501C14.0214 14.0035 13.934 13.9731 13.8433 13.9608C13.7526 13.9484 13.6603 13.9543 13.5719 13.9781C13.4835 14.0019 13.4007 14.0431 13.3285 14.0993C12.6533 14.6049 11.8327 14.8788 10.9892 14.88C10.1456 14.8788 9.32417 14.6049 8.64894 14.0993Z" fill="#8F96A3"/>
</svg>
