<svg width="150" height="98" viewBox="0 0 150 98" fill="none" xmlns="http://www.w3.org/2000/svg">
<path d="M111.644 0C105.901 9.47398 104.686 10.1427 96.8449 12.0375C96.8449 30.6511 82.4876 53.7231 69.0138 60.8564C104.134 47.7043 108.441 33.6605 111.644 0Z" fill="white"/>
<path d="M114.515 1.00313C113.19 16.8303 112.969 22.2917 112.969 22.2917C112.969 33.4376 116.172 51.271 150 60.522C126.145 40.6824 118.05 25.1896 114.515 1.00313Z" fill="white"/>
<path d="M109.877 64.4231C109.877 64.4231 108.219 59.4857 105.972 57.2179C103.725 54.9501 98.8328 53.2772 98.8328 53.2772C98.8328 53.2772 104.402 48.691 105.972 44.9178C108.885 37.9192 109.877 28.9792 109.877 28.9792C109.877 28.9792 110.869 37.9192 113.782 44.9178C115.352 48.691 120.921 53.2772 120.921 53.2772C120.921 53.2772 116.029 54.9501 113.782 57.2179C111.535 59.4857 109.877 64.4231 109.877 64.4231Z" fill="white"/>
<path d="M43.8333 10.923C43.8333 10.923 45.4909 15.8604 47.738 18.1282C49.9851 20.396 54.8774 22.0688 54.8774 22.0688C54.8774 22.0688 49.3083 26.655 47.738 30.4282C44.8253 37.4268 43.8333 46.3668 43.8333 46.3668C43.8333 46.3668 42.8414 37.4268 39.9287 30.4282C38.3583 26.655 32.7893 22.0688 32.7893 22.0688C32.7893 22.0688 37.6816 20.396 39.9287 18.1282C42.1758 15.8604 43.8333 10.923 43.8333 10.923Z" fill="white"/>
<path d="M0 24.3414C0 24.3414 10.0772 21.3855 11.9488 9.91732C11.9488 9.91732 23.909 17.0682 31.4863 29.6738C39.0636 42.2793 41.772 58.5093 41.772 58.5093C34.0232 45.2578 20.8124 27.3676 0 24.3414Z" fill="white"/>
<path d="M87.4286 24.3414C87.4286 24.3414 77.3514 21.3855 75.4798 9.91732C75.4798 9.91732 63.5196 17.0682 55.9423 29.6738C48.3651 42.2793 45.6567 58.5093 45.6567 58.5093C53.4055 45.2578 66.6163 27.3676 87.4286 24.3414Z" fill="white"/>
<path d="M33.9976 70.7471H38.618V96.7461H33.9976V80.7392C32.8522 81.66 31.5904 82.4045 30.1926 82.9335C28.7948 83.4625 27.3194 83.7368 25.7469 83.7368C24.1744 83.7368 22.6796 83.4625 21.3013 82.9335C19.9035 82.4045 18.6416 81.66 17.4962 80.7392V96.7461H12.8564V70.7471H17.4962C17.4962 71.8246 17.7098 72.8826 18.1369 73.8818C18.5446 74.9006 19.127 75.8019 19.8647 76.566C20.6024 77.3301 21.476 77.957 22.4855 78.4077C23.495 78.8779 24.5821 79.113 25.7469 79.113C26.8535 79.113 27.9018 78.8779 28.9113 78.4273C29.9014 77.9766 30.775 77.3497 31.5321 76.566C32.2893 75.8019 32.8911 74.9006 33.3376 73.9014C33.7841 72.9022 33.9976 71.8442 33.9976 70.7471Z" fill="white"/>
<path d="M53.081 70.7471H62.7295V75.41H59.8563V96.7461H55.1V92.1419C55.1 90.9859 54.8865 89.9084 54.44 88.8896C53.9935 87.8708 53.3916 86.9891 52.6345 86.225C51.8774 85.4609 50.9844 84.8731 49.9943 84.4225C48.9848 83.9915 47.9171 83.776 46.8105 83.776C46.4805 83.776 46.131 83.7956 45.801 83.8347C45.4516 83.8935 45.1409 83.9523 44.8692 84.0307V96.7461H40.1905V83.2274C40.1905 82.0714 40.3458 80.9547 40.6759 79.8771C40.9865 78.8191 41.433 77.8199 41.996 76.8991C42.559 75.9782 43.2384 75.1553 44.0344 74.3912C44.8303 73.6467 45.7039 73.0002 46.6552 72.4712C47.6064 71.9422 48.6354 71.5112 49.7225 71.2173C50.7902 70.9234 51.9162 70.7667 53.081 70.7471ZM55.1 82.2282V75.41H53.2363C52.4986 75.41 51.7997 75.508 51.1203 75.6843C50.4408 75.8607 49.8002 76.1154 49.2178 76.4484C48.6159 76.7815 48.0918 77.1929 47.6064 77.6436C47.1211 78.1138 46.694 78.6232 46.3252 79.1914C49.7225 79.1914 52.6539 80.2102 55.1 82.2282Z" fill="white"/>
<path d="M85.0743 70.7471H89.7141V96.7461H85.0743V95.355C84.9967 93.7681 84.7443 92.2399 84.3172 90.7508C83.8901 89.2618 83.3271 87.8512 82.6088 86.4993C81.8905 85.1474 81.0363 83.8935 80.0463 82.7376C79.0562 81.5816 77.9496 80.5432 76.7654 79.6224C75.5618 78.7015 74.2611 77.9179 72.8827 77.2713C71.5044 76.6248 70.0484 76.1545 68.5341 75.8411V96.7461H63.9137V70.7471H64.2243C66.3792 70.7471 68.4565 71.0018 70.456 71.5112C72.4556 72.0402 74.3581 72.7651 76.1442 73.7251C77.9108 74.6851 79.5609 75.8215 81.0752 77.1538C82.57 78.5056 83.9095 79.9946 85.0743 81.6404V70.7471Z" fill="white"/>
<path d="M116.349 79.113L116.33 83.776H114.486V94.5322C113.224 95.6489 111.826 96.4914 110.273 97.0988C108.7 97.7061 107.05 98 105.303 98C104.022 98 102.779 97.8433 101.595 97.5102C100.411 97.1771 99.285 96.6873 98.256 96.0799C97.2077 95.4726 96.2565 94.7281 95.4023 93.866C94.5481 93.0235 93.8104 92.0635 93.2086 91.0251C92.6067 89.9867 92.1214 88.87 91.7914 87.6748C91.4613 86.4797 91.2866 85.2258 91.2866 83.9327C91.2866 82.62 91.4613 81.3661 91.7914 80.1514C92.1214 78.9562 92.6067 77.8199 93.2086 76.7815C93.8104 75.7431 94.5481 74.7831 95.4023 73.921C96.2565 73.059 97.2077 72.3144 98.256 71.7071C99.285 71.0997 100.411 70.6099 101.595 70.2768C102.779 69.9438 104.022 69.787 105.303 69.787C106.779 69.787 108.176 70.0025 109.516 70.4532C110.836 70.9038 112.078 71.5308 113.224 72.3144L110.622 76.1741C109.826 75.6255 108.972 75.1945 108.079 74.9006C107.167 74.6068 106.254 74.4696 105.303 74.4696C104.002 74.4696 102.799 74.7243 101.673 75.2141C100.527 75.7235 99.5373 76.4092 98.7026 77.2713C97.8678 78.1334 97.2077 79.1326 96.7224 80.2885C96.2371 81.4445 95.9847 82.6592 95.9847 83.9327C95.9847 85.2062 96.2176 86.4013 96.703 87.5181C97.1883 88.6545 97.8484 89.6537 98.6831 90.4961C99.5179 91.3582 100.489 92.0439 101.634 92.5337C102.779 93.0235 104.002 93.2782 105.303 93.2782C106.099 93.2782 106.876 93.1803 107.633 93.004C108.39 92.8276 109.108 92.5337 109.807 92.1419V83.776H106.39V79.113H116.349Z" fill="white"/>
<path d="M130.812 70.7471H140.461V75.41H137.588V96.7461H132.831V92.1419C132.831 90.9859 132.618 89.9084 132.171 88.8896C131.725 87.8708 131.123 86.9891 130.366 86.225C129.609 85.4609 128.716 84.8731 127.726 84.4225C126.716 83.9915 125.648 83.776 124.542 83.776C124.212 83.776 123.862 83.7956 123.532 83.8347C123.183 83.8935 122.872 83.9523 122.6 84.0307V96.7461H117.922V83.2274C117.922 82.0714 118.077 80.9547 118.407 79.8771C118.718 78.8191 119.164 77.8199 119.727 76.8991C120.29 75.9782 120.97 75.1553 121.766 74.3912C122.562 73.6467 123.435 73.0002 124.387 72.4712C125.338 71.9422 126.367 71.5112 127.454 71.2173C128.522 70.9234 129.648 70.7667 130.812 70.7471ZM132.831 82.2282V75.41H130.968C130.23 75.41 129.531 75.508 128.852 75.6843C128.172 75.8607 127.531 76.1154 126.949 76.4484C126.347 76.7815 125.823 77.1929 125.338 77.6436C124.852 78.1138 124.425 78.6232 124.056 79.1914C127.454 79.1914 130.385 80.2102 132.831 82.2282Z" fill="white"/>
</svg>

