<svg width="64" height="41" viewBox="0 0 64 41" fill="none" xmlns="http://www.w3.org/2000/svg">
<path d="M0.548133 28.368V23.28H4.06813C4.06813 22.128 4.00413 20.8267 3.87613 19.376C3.76947 17.9253 3.5668 16.4 3.26813 14.8C2.96947 13.2 2.56413 11.5467 2.05213 9.84C1.54013 8.13333 0.868133 6.43733 0.0361328 4.752L3.65213 0.24C4.63347 1.98933 5.52947 4.016 6.34013 6.32C6.68147 7.30133 7.01213 8.4 7.33213 9.616C7.67347 10.832 7.97213 12.1547 8.22813 13.584C8.50547 14.992 8.72947 16.5067 8.90013 18.128C9.0708 19.7493 9.1668 21.4667 9.18813 23.28H22.3081C22.3295 21.4667 22.4255 19.7493 22.5961 18.128C22.7668 16.5067 22.9801 14.992 23.2361 13.584C23.5135 12.1547 23.8121 10.8427 24.1321 9.648C24.4735 8.432 24.8148 7.33333 25.1561 6.352C25.9455 4.048 26.8415 2.02133 27.8441 0.271999L31.4601 4.816C30.6281 6.50133 29.9561 8.19733 29.4441 9.904C28.9321 11.5893 28.5268 13.232 28.2281 14.832C27.9295 16.432 27.7161 17.9573 27.5881 19.408C27.4815 20.8373 27.4281 22.128 27.4281 23.28H30.8521V28.368H0.548133ZM13.0921 22.064V10.96H18.3081V22.064H13.0921ZM61.8069 28.336C60.1642 27.7813 58.6816 26.896 57.3589 25.68C56.0576 24.4853 54.8735 23.1093 53.8069 21.552C52.7616 19.9947 51.8442 18.3307 51.0549 16.56C50.2656 14.768 49.5829 13.008 49.0069 11.28C48.4309 13.008 47.7482 14.768 46.9589 16.56C46.1695 18.3307 45.2415 19.9947 44.1749 21.552C43.1295 23.1093 41.9455 24.4853 40.6229 25.68C39.3002 26.896 37.8282 27.7813 36.2069 28.336L34.2549 23.632C35.5349 22.9707 36.7935 21.9787 38.0309 20.656C38.5642 20.08 39.1189 19.408 39.6949 18.64C40.2709 17.872 40.8469 16.9867 41.4229 15.984C41.9989 14.96 42.5536 13.8187 43.0869 12.56C43.6416 11.28 44.1535 9.85067 44.6229 8.272H38.8629V3.184H45.8389C46.0309 2.26667 46.1909 1.30667 46.3189 0.303999H51.6949L52.1749 3.184H59.0869V8.272H53.4229C53.8922 9.85067 54.3936 11.28 54.9269 12.56C55.4816 13.8187 56.0362 14.96 56.5909 15.984C57.1669 16.9867 57.7429 17.872 58.3189 18.64C58.8949 19.408 59.4496 20.08 59.9829 20.656C61.2202 21.9787 62.4789 22.9707 63.7589 23.632L61.8069 28.336ZM46.3829 24.112V18.992H51.5989V24.112H46.3829ZM6.27881 38.638C6.56481 38.0587 6.79581 37.4757 6.97181 36.889C7.15514 36.3023 7.29814 35.734 7.40081 35.184C7.50348 34.634 7.57314 34.1133 7.60981 33.622C7.65381 33.1233 7.67581 32.676 7.67581 32.28H6.45481V30.52H16.8718V32.28H15.6948C15.6948 32.676 15.7131 33.1233 15.7498 33.622C15.7938 34.1133 15.8671 34.634 15.9698 35.184C16.0725 35.734 16.2118 36.3023 16.3878 36.889C16.5638 37.4683 16.7948 38.0477 17.0808 38.627L15.8378 40.189C15.4931 39.5877 15.1851 38.891 14.9138 38.099C14.7965 37.7617 14.6791 37.3877 14.5618 36.977C14.4518 36.559 14.3491 36.108 14.2538 35.624C14.1658 35.1327 14.0925 34.6083 14.0338 34.051C13.9751 33.4937 13.9421 32.9033 13.9348 32.28H9.42481C9.41748 32.9033 9.38448 33.4937 9.32581 34.051C9.26714 34.6083 9.19014 35.1327 9.09481 35.624C9.00681 36.1153 8.90414 36.57 8.78681 36.988C8.67681 37.3987 8.56314 37.7727 8.44581 38.11C8.16714 38.902 7.85914 39.5987 7.52181 40.2L6.27881 38.638ZM10.7668 36.504V32.698H12.5598V36.504H10.7668ZM27.6522 40.178C27.0875 39.9873 26.5778 39.683 26.1232 39.265C25.6758 38.8543 25.2688 38.3813 24.9022 37.846C24.5428 37.3107 24.2275 36.7387 23.9562 36.13C23.6848 35.514 23.4502 34.909 23.2522 34.315C23.0542 34.909 22.8195 35.514 22.5482 36.13C22.2768 36.7387 21.9578 37.3107 21.5912 37.846C21.2318 38.3813 20.8248 38.8543 20.3702 39.265C19.9155 39.683 19.4095 39.9873 18.8522 40.178L18.1812 38.561C18.6212 38.3337 19.0538 37.9927 19.4792 37.538C19.6625 37.34 19.8532 37.109 20.0512 36.845C20.2492 36.581 20.4472 36.2767 20.6452 35.932C20.8432 35.58 21.0338 35.1877 21.2172 34.755C21.4078 34.315 21.5838 33.8237 21.7452 33.281H19.7652V31.532H22.1632C22.2292 31.2167 22.2842 30.8867 22.3282 30.542H24.1762L24.3412 31.532H26.7172V33.281H24.7702C24.9315 33.8237 25.1038 34.315 25.2872 34.755C25.4778 35.1877 25.6685 35.58 25.8592 35.932C26.0572 36.2767 26.2552 36.581 26.4532 36.845C26.6512 37.109 26.8418 37.34 27.0252 37.538C27.4505 37.9927 27.8832 38.3337 28.3232 38.561L27.6522 40.178ZM22.3502 38.726V36.966H24.1432V38.726H22.3502ZM29.4282 38.649C29.7142 38.0697 29.9452 37.4867 30.1212 36.9C30.3046 36.3133 30.4476 35.745 30.5502 35.195C30.6529 34.645 30.7226 34.1243 30.7592 33.633C30.8032 33.1343 30.8252 32.687 30.8252 32.291H29.6042V30.531H35.1592V38.011H33.3662V32.291H32.5742C32.5669 32.9143 32.5339 33.5047 32.4752 34.062C32.4166 34.6193 32.3396 35.1437 32.2442 35.635C32.1562 36.119 32.0572 36.57 31.9472 36.988C31.8372 37.406 31.7236 37.7837 31.6062 38.121C31.3349 38.9203 31.0269 39.617 30.6822 40.211L29.4282 38.649ZM33.3662 40.189V38.44H35.9512C35.9586 37.8167 35.9916 37.2263 36.0502 36.669C36.1089 36.1117 36.1822 35.591 36.2702 35.107C36.3656 34.6157 36.4682 34.161 36.5782 33.743C36.6956 33.325 36.8129 32.9473 36.9302 32.61C37.2016 31.818 37.5096 31.1213 37.8542 30.52L39.0972 32.082C38.8112 32.6613 38.5802 33.2443 38.4042 33.831C38.2282 34.4103 38.0889 34.975 37.9862 35.525C37.8836 36.075 37.8102 36.5993 37.7662 37.098C37.7296 37.5967 37.7112 38.044 37.7112 38.44H38.9322V40.189H33.3662ZM46.6269 40.2V39.925C46.3042 39.8297 45.9302 39.7013 45.5049 39.54C45.0869 39.3787 44.6469 39.1733 44.1849 38.924C43.7229 38.682 43.2572 38.3887 42.7879 38.044C42.3186 37.7067 41.8712 37.3107 41.4459 36.856L41.4899 36.834H41.4349V32.291H40.1919V30.531H48.3869V32.291H43.1839V35.998C43.2132 36.0347 43.3049 36.13 43.4589 36.284C43.6129 36.438 43.8292 36.6213 44.1079 36.834C44.3866 37.0393 44.7349 37.2593 45.1529 37.494C45.5709 37.7213 46.0622 37.9303 46.6269 38.121V34.942H48.3869V40.2H46.6269ZM44.4269 36.691V34.942H46.2199V36.691H44.4269ZM58.9549 40.178C58.3902 39.9873 57.8806 39.683 57.4259 39.265C56.9786 38.8543 56.5716 38.3813 56.2049 37.846C55.8456 37.3107 55.5302 36.7387 55.2589 36.13C54.9876 35.514 54.7529 34.909 54.5549 34.315C54.3569 34.909 54.1222 35.514 53.8509 36.13C53.5796 36.7387 53.2606 37.3107 52.8939 37.846C52.5346 38.3813 52.1276 38.8543 51.6729 39.265C51.2182 39.683 50.7122 39.9873 50.1549 40.178L49.4839 38.561C49.9239 38.3337 50.3566 37.9927 50.7819 37.538C50.9652 37.34 51.1559 37.109 51.3539 36.845C51.5519 36.581 51.7499 36.2767 51.9479 35.932C52.1459 35.58 52.3366 35.1877 52.5199 34.755C52.7106 34.315 52.8866 33.8237 53.0479 33.281H51.0679V31.532H53.4659C53.5319 31.2167 53.5869 30.8867 53.6309 30.542H55.4789L55.6439 31.532H58.0199V33.281H56.0729C56.2342 33.8237 56.4066 34.315 56.5899 34.755C56.7806 35.1877 56.9712 35.58 57.1619 35.932C57.3599 36.2767 57.5579 36.581 57.7559 36.845C57.9539 37.109 58.1446 37.34 58.3279 37.538C58.7532 37.9927 59.1859 38.3337 59.6259 38.561L58.9549 40.178ZM53.6529 38.726V36.966H55.4459V38.726H53.6529Z" fill="white"/>
</svg>
