<svg width="22" height="23" viewBox="0 0 22 23" fill="none" xmlns="http://www.w3.org/2000/svg">
<path d="M6.40739 11.9254C6.40739 12.4114 6.21431 12.8775 5.87063 13.2212C5.52695 13.5649 5.06082 13.758 4.57479 13.758C4.08875 13.758 3.62262 13.5649 3.27894 13.2212C2.93526 12.8775 2.74219 12.4114 2.74219 11.9254C2.74219 11.4393 2.93526 10.9732 3.27894 10.6295C3.62262 10.2859 4.08875 10.0928 4.57479 10.0928C5.06082 10.0928 5.52695 10.2859 5.87063 10.6295C6.21431 10.9732 6.40739 11.4393 6.40739 11.9254ZM12.8215 11.9254C12.8215 12.4114 12.6284 12.8775 12.2847 13.2212C11.9411 13.5649 11.4749 13.758 10.9889 13.758C10.5029 13.758 10.0367 13.5649 9.69304 13.2212C9.34937 12.8775 9.15629 12.4114 9.15629 11.9254C9.15629 11.4393 9.34937 10.9732 9.69304 10.6295C10.0367 10.2859 10.5029 10.0928 10.9889 10.0928C11.4749 10.0928 11.9411 10.2859 12.2847 10.6295C12.6284 10.9732 12.8215 11.4393 12.8215 11.9254ZM19.2356 11.9254C19.2356 12.4114 19.0425 12.8775 18.6988 13.2212C18.3552 13.5649 17.889 13.758 17.403 13.758C16.917 13.758 16.4508 13.5649 16.1071 13.2212C15.7635 12.8775 15.5704 12.4114 15.5704 11.9254C15.5704 11.4393 15.7635 10.9732 16.1071 10.6295C16.4508 10.2859 16.917 10.0928 17.403 10.0928C17.889 10.0928 18.3552 10.2859 18.6988 10.6295C19.0425 10.9732 19.2356 11.4393 19.2356 11.9254Z" fill="#8F96A3"/>
</svg>
