<svg width="18" height="17" viewBox="0 0 18 17" fill="none" xmlns="http://www.w3.org/2000/svg">
<path d="M5.30509 11.8051C6.62607 9.1165 7.2874 7.7722 8.23691 7.45153C8.72862 7.28585 9.26108 7.28585 9.75279 7.45153C10.7023 7.7722 11.3636 9.1165 12.6846 11.8051L13.4159 13.296C13.7574 13.9898 13.9273 14.3371 13.9681 14.5737C14.1355 15.5557 13.4101 16.4602 12.4306 16.4894C12.1949 16.496 11.8267 16.3953 11.0896 16.1929C10.8115 16.1124 10.5309 16.0404 10.2484 15.9771C9.42105 15.81 8.56865 15.81 7.74133 15.9771C7.53144 16.0196 7.32071 16.0771 6.9001 16.1937C6.16298 16.3953 5.79483 16.496 5.55912 16.4894C4.58046 16.4602 3.85417 15.5557 4.02158 14.5737C4.06156 14.3371 4.23231 13.9907 4.5738 13.2952L5.30509 11.8051ZM4.1182 3.60184C4.46135 4.96031 5.43085 5.86484 6.28375 5.62247C7.13747 5.37926 7.55143 4.0816 7.20827 2.72396C6.86511 1.3655 5.89562 0.460962 5.04272 0.703338C4.18899 0.946546 3.77504 2.24421 4.1182 3.60184ZM13.8715 3.60184C13.5283 4.96031 12.5588 5.86484 11.706 5.62247C10.8522 5.37926 10.4383 4.0816 10.7814 2.72396C11.1246 1.3655 12.0941 0.460962 12.947 0.703338C13.8007 0.946546 14.2147 2.24421 13.8715 3.60184ZM0.834056 9.24061C1.20886 10.2443 2.09008 10.8539 2.80221 10.6024C3.51434 10.3509 3.78753 9.33306 3.41273 8.32858C3.03792 7.32576 2.15671 6.71607 1.44458 6.96761C0.732442 7.21915 0.45925 8.23696 0.834056 9.24144M17.1556 9.24061C16.7808 10.2443 15.8996 10.8539 15.1875 10.6024C14.4754 10.3509 14.2022 9.33306 14.577 8.32858C14.9518 7.32576 15.833 6.71607 16.5451 6.96761C17.2573 7.21915 17.5305 8.23696 17.1556 9.24144" fill="#8F96A3"/>
</svg>
