<svg width="22" height="23" viewBox="0 0 22 23" fill="none" xmlns="http://www.w3.org/2000/svg">
<path d="M15.5707 14.2365C15.5707 16.0591 14.8466 17.8071 13.5578 19.0959C12.269 20.3847 10.5211 21.1088 8.69842 21.1088C6.87579 21.1088 5.1278 20.3847 3.83901 19.0959C2.55021 17.8071 1.82617 16.0591 1.82617 14.2365C1.82617 12.4139 2.55021 10.6659 3.83901 9.3771C5.1278 8.0883 6.87579 7.36426 8.69842 7.36426C10.5211 7.36426 12.269 8.0883 13.5578 9.3771C14.8466 10.6659 15.5707 12.4139 15.5707 14.2365ZM16.4696 3.10622C16.5072 3.01082 16.5727 2.92895 16.6575 2.87126C16.7423 2.81357 16.8426 2.78271 16.9451 2.78271C17.0477 2.78271 17.1479 2.81357 17.2327 2.87126C17.3175 2.92895 17.383 3.01082 17.4207 3.10622L18.0199 4.62728C18.0722 4.75831 18.1757 4.86277 18.3086 4.91499L19.8287 5.51425C20.2594 5.68469 20.2594 6.29494 19.8287 6.46537L18.3077 7.06463C18.2425 7.09054 18.1834 7.12952 18.1339 7.17916C18.0844 7.2288 18.0456 7.28806 18.0199 7.35327L17.4207 8.87341C17.383 8.96881 17.3175 9.05068 17.2327 9.10837C17.1479 9.16606 17.0477 9.19691 16.9451 9.19691C16.8426 9.19691 16.7423 9.16606 16.6575 9.10837C16.5727 9.05068 16.5072 8.96881 16.4696 8.87341L15.8703 7.35235C15.8444 7.28722 15.8054 7.22809 15.7558 7.17861C15.7061 7.12912 15.6469 7.09034 15.5817 7.06463L14.0615 6.46537C13.9661 6.4277 13.8843 6.3622 13.8266 6.2774C13.7689 6.19259 13.738 6.09239 13.738 5.98981C13.738 5.88724 13.7689 5.78704 13.8266 5.70223C13.8843 5.61742 13.9661 5.55193 14.0615 5.51425L15.5826 4.91499C15.6477 4.88909 15.7068 4.85011 15.7563 4.80047C15.8058 4.75082 15.8446 4.69157 15.8703 4.62636L16.4696 3.10622ZM14.6699 9.23627L15.3572 8.54904L15.0823 7.85265L14.3859 7.57776L13.6987 8.26499C14.0511 8.56004 14.3749 8.8838 14.6699 9.23627Z" fill="#8F96A3"/>
</svg>
