<svg width="21" height="20" viewBox="0 0 21 20" fill="none" xmlns="http://www.w3.org/2000/svg">
<path d="M9.36226 1.66095C13.5001 1.66095 16.8584 5.01922 16.8584 9.15709C16.8584 13.295 13.5001 16.6532 9.36226 16.6532C5.2244 16.6532 1.86613 13.295 1.86613 9.15709C1.86613 5.01922 5.2244 1.66095 9.36226 1.66095ZM9.36226 14.9874C12.5831 14.9874 15.1926 12.3779 15.1926 9.15709C15.1926 5.93625 12.5831 3.32676 9.36226 3.32676C6.14142 3.32676 3.53194 5.93625 3.53194 9.15709C3.53194 12.3779 6.14142 14.9874 9.36226 14.9874ZM16.4295 15.0466L18.7857 17.402L17.6072 18.5806L15.2517 16.2243L16.4295 15.0466Z" fill="#8F96A3"/>
</svg>
