<svg width="19" height="18" viewBox="0 0 19 18" fill="none" xmlns="http://www.w3.org/2000/svg">
<path d="M10.5608 11.9405C10.6774 11.6406 10.6024 11.2992 10.3692 11.0659L8.62842 9.35016L8.6534 9.32517C10.0649 7.75721 11.1192 5.90152 11.7435 3.8863H13.3593C13.8091 3.8863 14.1839 3.5115 14.1839 3.06173V3.04507C14.1839 2.5953 13.8091 2.2205 13.3593 2.2205H8.35356V1.38759C8.35356 0.929494 7.97875 0.554688 7.52066 0.554688C7.06256 0.554688 6.68775 0.929494 6.68775 1.38759V2.2205H1.682C1.23223 2.2205 0.857422 2.5953 0.857422 3.04507C0.857422 3.50317 1.23223 3.86965 1.682 3.86965H10.161C9.58877 5.52209 8.69097 7.04298 7.52066 8.34234C6.846 7.60106 6.27963 6.79314 5.80487 5.94358C5.74187 5.82587 5.64825 5.72736 5.5339 5.65846C5.41955 5.58956 5.28871 5.55281 5.15521 5.55211C4.5805 5.55211 4.21403 6.17679 4.49721 6.67653C5.02194 7.61771 5.66328 8.51725 6.41289 9.35016L2.7731 12.94C2.69402 13.0168 2.63115 13.1088 2.58822 13.2103C2.54529 13.3119 2.52317 13.4211 2.52317 13.5313C2.52317 13.6416 2.54529 13.7508 2.58822 13.8523C2.63115 13.9539 2.69402 14.0458 2.7731 14.1227C3.09793 14.4475 3.62266 14.4475 3.95583 14.1227L7.52066 10.5495L9.20312 12.232C9.6279 12.6568 10.3525 12.4985 10.5608 11.9405ZM14.6003 7.21792C14.1006 7.21792 13.6508 7.52609 13.4759 8.00085L10.4192 16.1633C10.2193 16.6714 10.6024 17.2128 11.1438 17.2128C11.4686 17.2128 11.7601 17.0129 11.8767 16.7047L12.618 14.7141H16.5743L17.3239 16.7047C17.4405 17.0045 17.7321 17.2128 18.0569 17.2128C18.5983 17.2128 18.9814 16.6714 18.7898 16.1633L15.7331 8.00085C15.5499 7.52609 15.1001 7.21792 14.6003 7.21792ZM13.251 13.0483L14.6003 9.44178L15.9496 13.0483H13.251Z" fill="white"/>
</svg>
